<mxfile host="app.diagrams.net" agent="Mozilla/5.0 (Windows NT 10.0; Win64; x64) AppleWebKit/537.36 (KHTML, like Gecko) Chrome/141.0.0.0 Safari/537.36" version="28.2.5">
  <diagram name="Conceptual Model (ERD)" id="0">
    <mxGraphModel dx="1131" dy="1049" grid="0" gridSize="10" guides="1" tooltips="1" connect="1" arrows="1" fold="1" page="0" pageScale="1" pageWidth="1169" pageHeight="827" math="0" shadow="0">
      <root>
        <mxCell id="0" />
        <mxCell id="1" parent="0" />
        <mxCell id="USER" value="USER&#xa;(fullname, email, password, phone)" style="shape=rectangle;rounded=1;whiteSpace=wrap;fillColor=#dae8fc;strokeColor=#6c8ebf;" parent="1" vertex="1">
          <mxGeometry x="80" y="55" width="160" height="70" as="geometry" />
        </mxCell>
        <mxCell id="PERMISSION" value="PERMISSION&#xa;(permission)" style="shape=rectangle;rounded=1;whiteSpace=wrap;fillColor=#fff2cc;strokeColor=#d6b656;" parent="1" vertex="1">
          <mxGeometry x="80" y="-125" width="160" height="50" as="geometry" />
        </mxCell>
        <mxCell id="CUSTOMER" value="CUSTOMER&#xa;(fullname, email, password, phone, address, gender)" style="shape=rectangle;rounded=1;whiteSpace=wrap;fillColor=#f8cecc;strokeColor=#b85450;" parent="1" vertex="1">
          <mxGeometry x="400" y="-140" width="200" height="80" as="geometry" />
        </mxCell>
        <mxCell id="PRODUCT" value="PRODUCT&#xa;(name_product, price_product, image, describe, stock, count_sell)" style="shape=rectangle;rounded=1;whiteSpace=wrap;fillColor=#d5e8d4;strokeColor=#82b366;" parent="1" vertex="1">
          <mxGeometry x="630" y="50" width="210" height="80" as="geometry" />
        </mxCell>
        <mxCell id="CATEGORY" value="CATEGORY&#xa;(category)" style="shape=rectangle;rounded=1;whiteSpace=wrap;fillColor=#fff2cc;strokeColor=#d6b656;" parent="1" vertex="1">
          <mxGeometry x="950" y="65" width="140" height="50" as="geometry" />
        </mxCell>
        <mxCell id="SALE" value="SALE&#xa;(promotion%)" style="shape=rectangle;rounded=1;whiteSpace=wrap;fillColor=#e1d5e7;strokeColor=#9673a6;" parent="1" vertex="1">
          <mxGeometry x="850" y="-120" width="130" height="50" as="geometry" />
        </mxCell>
        <mxCell id="COMMENT" value="COMMENT&#xa;(fullname, content, star)" style="shape=rectangle;rounded=1;whiteSpace=wrap;fillColor=#f8cecc;strokeColor=#b85450;" parent="1" vertex="1">
          <mxGeometry x="660" y="-130" width="150" height="60" as="geometry" />
        </mxCell>
        <mxCell id="FAVORITE" value="FAVORITE" style="shape=rectangle;rounded=1;whiteSpace=wrap;fillColor=#d5e8d4;strokeColor=#82b366;" parent="1" vertex="1">
          <mxGeometry x="270" y="70" width="100" height="40" as="geometry" />
        </mxCell>
        <mxCell id="ORDER" value="ORDER&#xa;(fullname, email, phone, address, total, status, pay, feeship, note)" style="shape=rectangle;rounded=1;whiteSpace=wrap;fillColor=#fff2cc;strokeColor=#d6b656;" parent="1" vertex="1">
          <mxGeometry x="385" y="240" width="230" height="90" as="geometry" />
        </mxCell>
        <mxCell id="ORDER_DETAIL" value="ORDER_DETAIL&#xa;(count, price_product)" style="shape=rectangle;rounded=1;whiteSpace=wrap;fillColor=#f8cecc;strokeColor=#b85450;" parent="1" vertex="1">
          <mxGeometry x="655" y="250" width="160" height="60" as="geometry" />
        </mxCell>
        <mxCell id="COUPON" value="COUPON&#xa;(code, promotion%, describe, count)" style="shape=rectangle;rounded=1;whiteSpace=wrap;fillColor=#e1d5e7;strokeColor=#9673a6;" parent="1" vertex="1">
          <mxGeometry x="110" y="255" width="190" height="60" as="geometry" />
        </mxCell>
        <mxCell id="edge1" style="endArrow=classic;strokeColor=#6c8ebf;" parent="1" source="USER" target="PERMISSION" edge="1">
          <mxGeometry relative="1" as="geometry" />
        </mxCell>
        <mxCell id="edge2" style="endArrow=classic;strokeColor=#82b366;" parent="1" source="PRODUCT" target="CATEGORY" edge="1">
          <mxGeometry relative="1" as="geometry" />
        </mxCell>
        <mxCell id="edge3" style="endArrow=classic;strokeColor=#9673a6;" parent="1" source="PRODUCT" target="SALE" edge="1">
          <mxGeometry relative="1" as="geometry" />
        </mxCell>
        <mxCell id="edge4" style="endArrow=classic;strokeColor=#b85450;" parent="1" source="PRODUCT" target="COMMENT" edge="1">
          <mxGeometry relative="1" as="geometry" />
        </mxCell>
        <mxCell id="edge5" style="endArrow=classic;strokeColor=#b85450;" parent="1" source="CUSTOMER" target="COMMENT" edge="1">
          <mxGeometry relative="1" as="geometry" />
        </mxCell>
        <mxCell id="edge6" style="endArrow=classic;strokeColor=#6c8ebf;" parent="1" source="CUSTOMER" target="CART" edge="1">
          <mxGeometry relative="1" as="geometry" />
        </mxCell>
        <mxCell id="edge7" style="endArrow=classic;strokeColor=#6c8ebf;" parent="1" source="PRODUCT" target="CART" edge="1">
          <mxGeometry relative="1" as="geometry" />
        </mxCell>
        <mxCell id="edge8" style="endArrow=classic;strokeColor=#82b366;" parent="1" source="CUSTOMER" target="FAVORITE" edge="1">
          <mxGeometry relative="1" as="geometry" />
        </mxCell>
        <mxCell id="edge9" style="endArrow=classic;strokeColor=#82b366;" parent="1" source="CART" target="FAVORITE" edge="1">
          <mxGeometry relative="1" as="geometry" />
        </mxCell>
        <mxCell id="edge10" style="endArrow=classic;strokeColor=#d6b656;" parent="1" source="CART" target="ORDER" edge="1">
          <mxGeometry relative="1" as="geometry" />
        </mxCell>
        <mxCell id="edge11" style="endArrow=classic;strokeColor=#9673a6;" parent="1" source="ORDER" target="COUPON" edge="1">
          <mxGeometry relative="1" as="geometry" />
        </mxCell>
        <mxCell id="edge12" style="endArrow=classic;strokeColor=#b85450;" parent="1" source="ORDER" target="ORDER_DETAIL" edge="1">
          <mxGeometry relative="1" as="geometry" />
        </mxCell>
        <mxCell id="edge13" style="endArrow=classic;strokeColor=#b85450;" parent="1" source="PRODUCT" target="ORDER_DETAIL" edge="1">
          <mxGeometry relative="1" as="geometry" />
        </mxCell>
        <mxCell id="3MR5cvT4cDuC1InaaM_c-1" value="" style="endArrow=classic;strokeColor=#d6b656;" parent="1" source="CUSTOMER" target="CART" edge="1">
          <mxGeometry relative="1" as="geometry">
            <mxPoint x="539" y="-30" as="sourcePoint" />
            <mxPoint x="678" y="260" as="targetPoint" />
          </mxGeometry>
        </mxCell>
        <mxCell id="3MR5cvT4cDuC1InaaM_c-2" value="" style="endArrow=classic;strokeColor=#82b366;" parent="1" source="PRODUCT" target="CART" edge="1">
          <mxGeometry relative="1" as="geometry">
            <mxPoint x="630" y="90" as="sourcePoint" />
            <mxPoint x="400" y="90" as="targetPoint" />
          </mxGeometry>
        </mxCell>
        <mxCell id="CART" value="CART&#xa;(count)" style="shape=rectangle;rounded=1;whiteSpace=wrap;fillColor=#dae8fc;strokeColor=#6c8ebf;" parent="1" vertex="1">
          <mxGeometry x="435" y="65" width="130" height="50" as="geometry" />
        </mxCell>
      </root>
    </mxGraphModel>
  </diagram>
</mxfile>
